<svg width="17" height="24" fill="none" xmlns="http://www.w3.org/2000/svg"><path d="M1.456 6.742c-.084-1.198.182-2.378.885-3.327.61-.861 1.404-1.331 2.362-1.606.806-.239 1.334.054 1.567.95.332 1.34.806 2.681.978 4.092.055.622-.347 1.5-.782 1.952-1.09 1.074-.863 1.855-.036 3.479.257.524.664 1.43 1.459 2.628.827 1.207 1.265 1.855 2.328 1.305 1.18-.594 2.041-.212 2.932.747.604.693 1.269 1.288 1.873 1.98.872 1.03.833 1.74.15 2.467-1.229 1.34-3.258 1.782-4.768.885-.833-.488-1.664-1.128-2.325-1.873-2.914-3.32-5.016-7.182-6.281-11.54a10.989 10.989 0 01-.342-2.139z" stroke="#0AD9C6" stroke-width="2" stroke-miterlimit="10"/></svg>